<?xml version="1.0" encoding="UTF-8" standalone="no"?>
<svg
   xmlns:dc="http://purl.org/dc/elements/1.1/"
   xmlns:cc="http://creativecommons.org/ns#"
   xmlns:rdf="http://www.w3.org/1999/02/22-rdf-syntax-ns#"
   xmlns:svg="http://www.w3.org/2000/svg"
   xmlns="http://www.w3.org/2000/svg"
   xmlns:sodipodi="http://sodipodi.sourceforge.net/DTD/sodipodi-0.dtd"
   xmlns:inkscape="http://www.inkscape.org/namespaces/inkscape"
   version="1.1"
   id="svg901"
   width="1024"
   height="1024"
   viewBox="0 0 1024 1024"
   sodipodi:docname="logo.svg"
   inkscape:version="1.0.1 (3bc2e813f5, 2020-09-07, custom)">
  <sodipodi:namedview
     pagecolor="#ffffff"
     bordercolor="#666666"
     borderopacity="1"
     objecttolerance="10"
     gridtolerance="10"
     guidetolerance="10"
     inkscape:pageopacity="0"
     inkscape:pageshadow="2"
     inkscape:window-width="1920"
     inkscape:window-height="1080"
     id="namedview23"
     showgrid="false"
     inkscape:snap-grids="true"
     inkscape:object-paths="true"
     inkscape:zoom="0.59938348"
     inkscape:cx="429.14814"
     inkscape:cy="480.57238"
     inkscape:window-x="0"
     inkscape:window-y="0"
     inkscape:window-maximized="0"
     inkscape:current-layer="layer1" />
  <metadata
     id="metadata907">
    <rdf:RDF>
      <cc:Work
         rdf:about="">
        <dc:format>image/svg+xml</dc:format>
        <dc:type
           rdf:resource="http://purl.org/dc/dcmitype/StillImage" />
        <dc:title></dc:title>
      </cc:Work>
    </rdf:RDF>
  </metadata>
  <defs
     id="defs905" />
  <g
     inkscape:groupmode="layer"
     id="layer1"
     inkscape:label="Layer 1"
     style="display:inline">
    <g
       id="g1100"
       style="fill:#291f6f;fill-opacity:1;stroke:#fe17a9;stroke-opacity:1">
      <path
         style="display:inline;fill:#291f6f;fill-opacity:1;fill-rule:evenodd;stroke:#fe17a9;stroke-width:10;stroke-linecap:round;stroke-linejoin:round;stroke-miterlimit:4;stroke-dasharray:none;stroke-opacity:1"
         d="M 609.47452,907.8897 C 736.20978,847.33894 736.90301,756.8421 748.37258,706.02071 l -11.62003,-7.9982 C 693.54333,807.38003 661.91877,814.50478 630.13391,827.28324 Z"
         id="path949"
         sodipodi:nodetypes="ccccc" />
      <path
         style="fill:#291f6f;fill-opacity:1;fill-rule:evenodd;stroke:#fe17a9;stroke-width:10;stroke-linecap:round;stroke-linejoin:round;stroke-miterlimit:4;stroke-dasharray:none;stroke-opacity:1"
         d="m 482.67328,288.84622 c 0,0 -13.67585,67.31398 -71.47366,62.33707 0,0 -15.97298,52.47766 8.6999,86.05304 l 140.28607,198.49321 c 6.8473,6.89638 29.33762,51.31481 47.33648,102.13024 13.28105,37.49578 31.47619,83.65947 13.47939,137.45738 -32.01813,95.71189 -99.12345,101.02826 -148.10781,107.18784 -48.98436,6.15958 -168.5705,-250.74053 -183.10341,-316.24534 -14.53291,-65.50481 -6.65459,-162.37932 -1.30322,-203.7438 5.35137,-41.36448 -48.09219,-190.93683 -48.09219,-190.93683"
         id="path935"
         sodipodi:nodetypes="ccccsszzsc" />
      <path
         style="fill:#291f6f;fill-opacity:1;fill-rule:evenodd;stroke:#fe17a9;stroke-width:10;stroke-linecap:round;stroke-linejoin:round;stroke-miterlimit:4;stroke-dasharray:none;stroke-opacity:1"
         d="m 422.10453,295.04427 c 11.83332,8.98041 31.6933,16.02856 46.73004,19.96785 66.69834,17.4735 149.55527,-13.07834 176.99346,-70.09965 l -13.2055,-25.08082 c -74.91104,-16.28139 -95.07281,-25.0241 -163.76459,-32.02879 -112.58573,-11.48068 -181.82274,28.78896 -257.9052,89.68367 -20.27864,16.23057 -49.18078,18.08119 -77.33769,33.45691 -23.53689,12.85282 -43.115154,39.96164 -32.05783,67.43427 15.50227,38.51652 142.94049,37.53121 165.55916,-43.52161 8.86701,-31.77454 13.82246,-43.14786 14.43681,-47.8126"
         id="path927" />
      <path
         style="display:inline;fill:#291f6f;fill-opacity:1;fill-rule:evenodd;stroke:#fe17a9;stroke-width:10;stroke-linecap:round;stroke-linejoin:round;stroke-miterlimit:4;stroke-dasharray:none;stroke-opacity:1"
         d="m 286.87879,649.95813 c 8.93292,78.20379 36.72981,208.4373 24.25682,290.51629 -22.83775,-4.50555 -96.51317,-12.51631 -98.81513,19.18933 -2.45144,33.76417 29.35604,46.60685 134.41159,30.3046 37.11821,-5.75989 -1.47323,-166.82971 -3.02146,-272.56316 z"
         id="path930"
         sodipodi:nodetypes="ccsscc" />
      <path
         id="path945"
         style="display:inline;fill:#291f6f;fill-opacity:1;fill-rule:evenodd;stroke:#fe17a9;stroke-width:10.075;stroke-linecap:round;stroke-linejoin:round;stroke-miterlimit:4;stroke-dasharray:none;stroke-opacity:1"
         d="m 485.17249,951.99914 c 30.94358,11.9859 27.65243,15.53954 28.35893,28.30566 1.87924,33.9569 -57.82352,25.2991 -117.17011,7.7376 -24.55741,-7.2669 -24.6221,-239.85486 -35.40521,-318.07251 -1.88827,-13.69694 46.75505,-31.56254 49.15926,-14.63524 3.29926,23.22903 6.44956,172.83114 9.1742,286.41654 0,0 34.93935,-1.73802 65.88293,10.24795 z"
         sodipodi:nodetypes="csssscc" />
    </g>
    <path
       id="path913"
       style="display:inline;fill:#ff9edc;fill-opacity:1;fill-rule:evenodd;stroke:#e20090;stroke-width:10;stroke-linecap:round;stroke-linejoin:round;stroke-miterlimit:4;stroke-dasharray:none;stroke-opacity:1"
       d="m 238.75293,268.03635 c 44.40068,27.96649 81.02296,16.65464 91.84537,-15.49277 5.29361,32.90889 87.49738,13.4343 82.34015,-44.27068 12.74172,28.87757 48.34199,0.0455 50.09954,-32.23914 m -224.28506,92.00259 c -47.10953,22.86619 -79.21649,-38.38293 -58.42798,-43.04363 -46.6012,-29.46527 -50.59547,-66.19318 -25.11182,-81.902 -19.54125,-29.32176 -17.38462,-86.57419 24.29586,-85.144294 -4.47115,-30.216939 66.63014,-62.6081551 92.44011,-14.976442 14.20484,-30.684669 87.30265,-34.8378889 125.67701,14.838335 29.33123,-29.348019 83.63714,24.492393 60.23406,47.848771 31.19535,7.64412 39.3022,57.68735 5.17782,70.37667 -4.12584,1.5342 -18.90015,3.59827 -18.90015,3.59827 l 18.90015,-3.59827" />
    <path
       style="display:inline;fill:#ff9edc;fill-opacity:1;fill-rule:evenodd;stroke:#e20090;stroke-width:10;stroke-linecap:round;stroke-linejoin:round;stroke-miterlimit:4;stroke-dasharray:none;stroke-opacity:1"
       d="m 645.93088,201.94385 c 7.0523,-9.60442 27.72966,15.75197 31.2975,25.70689 3.09062,9.25501 -2.05624,24.36573 -12.89677,24.36573 -7.91795,-1.40558 -19.82858,-13.22706 -23.44451,-19.93618 -9.63095,-13.81451 -6.18808,-38.04338 10.97674,-32.37395"
       id="path921" />
    <path
       style="display:inline;fill:none;fill-rule:evenodd;stroke:#e20090;stroke-width:10;stroke-linecap:round;stroke-linejoin:round;stroke-miterlimit:4;stroke-dasharray:none;stroke-opacity:1"
       d="m 491.0172,229.89032 c -8.59279,28.85848 -30.72404,21.52403 -49.33714,12.65303"
       id="path923" />
    <g
       id="g1105"
       style="fill:#f5f5f5;fill-opacity:1">
      <path
         style="display:inline;fill:#f5f5f5;fill-opacity:1;fill-rule:evenodd;stroke:#e20090;stroke-width:10;stroke-linecap:round;stroke-linejoin:round;stroke-miterlimit:4;stroke-dasharray:none;stroke-opacity:1"
         d="m 481.53933,159.73721 c 12.55441,34.7905 -16.47415,35.46742 -16.47415,35.46742 0,0 -85.60358,-4.88859 -152.53387,29.35089 -71.98478,36.8252 -101.57857,52.93101 -101.57857,52.93101 0,0 -18.42153,-1.70918 -20.10423,-19.55812 -1.68275,-17.849 172.83547,-110.06471 290.69082,-98.1912 z"
         id="path2727"
         sodipodi:nodetypes="ccscsc" />
      <path
         style="display:inline;fill:#f5f5f5;fill-opacity:1;fill-rule:evenodd;stroke:#e20090;stroke-width:10;stroke-linecap:round;stroke-linejoin:round;stroke-miterlimit:4;stroke-dasharray:none;stroke-opacity:1"
         d="m 427.2959,897.69638 c 3.43344,7.02006 6.79399,29.9808 -2.35851,32.9974 -9.1525,3.01659 -38.71164,11.59307 -44.31343,5.84172 -5.60179,-5.75134 -10.85375,-26.06595 -7.39553,-33.4565 3.22689,-6.89618 50.63404,-12.40268 54.06747,-5.38262 z"
         id="path2727-3"
         sodipodi:nodetypes="zzzsz" />
      <path
         style="display:inline;fill:#f5f5f5;fill-opacity:1;fill-rule:evenodd;stroke:#e20090;stroke-width:10;stroke-linecap:round;stroke-linejoin:round;stroke-miterlimit:4;stroke-dasharray:none;stroke-opacity:1"
         d="m 309.6012,904.71966 c -1.34964,7.69728 -3.84946,36.076 5.78073,36.4332 9.63018,0.35719 43.52628,0.83207 47.31126,-6.24833 3.78497,-7.08039 0.73349,-24.28654 -4.6405,-30.42656 -5.0145,-5.7293 -47.10185,-7.4556 -48.45149,0.24169 z"
         id="path2727-3-6"
         sodipodi:nodetypes="zzzsz"
         inkscape:transform-center-x="64.192247"
         inkscape:transform-center-y="21.301614" />
    </g>
    <path
       style="display:inline;fill:#ff9edc;fill-opacity:1;fill-rule:evenodd;stroke:#e20090;stroke-width:10;stroke-linecap:round;stroke-linejoin:round;stroke-miterlimit:4;stroke-dasharray:none;stroke-opacity:1"
       d="m 727.64114,716.37597 c -12.92292,7.10373 30.01606,37.79954 36.50861,-3.54933 20.40837,39.35308 73.52233,0.94328 43.45866,-25.57395 37.45396,11.80374 44.65394,-33.14048 16.7082,-40.88995 26.58416,-4.54884 6.4082,-66.11544 -24.79392,-32.38201 4.24491,-39.76498 -41.07901,-42.75827 -48.01655,-3.8996 -10.57718,-38.22598 -51.49972,-11.44604 -27.94864,17.58891 -32.21342,-21.92516 -62.58647,38.75467 -6.50232,58.08977 -19.11406,18.99722 10.58596,30.61616 10.58596,30.61616 z"
       id="path951" />
    <path
       style="display:inline;fill:#ff9edc;fill-opacity:1;fill-rule:evenodd;stroke:#e20090;stroke-width:10;stroke-linecap:round;stroke-linejoin:round;stroke-miterlimit:4;stroke-dasharray:none;stroke-opacity:1"
       d="m 438.18238,454.48446 c 17.59285,-49.65711 152.79931,21.63215 72.59155,91.38902 6.43905,-8.00705 18.1324,-8.15664 28.253,2.12283 25.05668,25.44981 42.20234,76.0674 3.91566,108.22584 -25.11772,21.09735 -37.29952,8.32626 -37.29952,8.32626 -0.41104,19.00786 11.38926,36.72262 -19.40979,70.28609 -30.79905,33.56348 -121.2836,51.79475 -124.32842,-7.11295 -38.61164,41.7432 -84.24314,9.8598 -97.72838,-51.94723 -13.15428,55.60683 -136.03007,-4.48196 -68.83733,-68.4406 -27.72726,-7.51111 -44.91687,-46.66917 7.56625,-73.4323 -9.1741,-45.36874 8.61714,-96.38328 91.48101,-70.52658 3.17623,-35.26463 65.10413,-77.14972 103.09311,-25.71748 19.14681,-8.55408 44.67917,-0.44576 40.70286,16.8271 z"
       id="path931" />
  </g>
  <g
     inkscape:groupmode="layer"
     id="layer2"
     inkscape:label="Layer 2"
     style="display:none" />
  <g
     inkscape:groupmode="layer"
     id="layer3"
     inkscape:label="Layer 3"
     style="display:none" />
</svg>
