<?xml version="1.0" encoding="UTF-8" standalone="no"?>
<svg
   xmlns:dc="http://purl.org/dc/elements/1.1/"
   xmlns:cc="http://creativecommons.org/ns#"
   xmlns:rdf="http://www.w3.org/1999/02/22-rdf-syntax-ns#"
   xmlns:svg="http://www.w3.org/2000/svg"
   xmlns="http://www.w3.org/2000/svg"
   width="1024"
   height="512"
   viewBox="0 0 270 135"
   version="1.1"
   id="svg977">
  <metadata
     id="metadata913">
    <rdf:RDF>
      <cc:Work
         rdf:about="">
        <dc:format>image/svg+xml</dc:format>
        <dc:type
           rdf:resource="http://purl.org/dc/dcmitype/StillImage" />
        <dc:title></dc:title>
      </cc:Work>
    </rdf:RDF>
  </metadata>
  <defs
     id="defs911" />
  <path
     id="path2076"
     style="fill:none;fill-rule:evenodd;stroke:#363636;stroke-width:10.7716;stroke-linecap:round;stroke-linejoin:round;stroke-miterlimit:4;stroke-dasharray:none;stroke-opacity:1"
     d="m 264.03855,98.269962 v 0 M 202.36131,69.258639 c 0,0 9.7748,-21.655504 11.90588,-34.262066 2.01506,-11.920308 -7.23363,-21.199692 -15.86417,-1.053031 -2.11458,4.936142 -7.23734,16.933145 -6.99413,28.5852 0.24318,11.652068 0.94322,24.43773 5.58292,33.415194 6.04723,11.700904 11.12722,15.450434 24.19008,6.413804 11.91197,-8.240457 18.22982,-19.222972 23.62369,-28.018462 7.41576,-12.092469 -15.87397,-20.459906 -18.90948,-5.407053 -3.00954,14.923999 1.80134,21.686437 7.8319,25.463639 6.03059,3.777195 12.87565,5.261096 14.86054,4.769088 M 158.22736,78.130109 C 156.7879,65.96352 147.54946,64.342726 143.40817,66.80978 c -4.14125,2.467028 -9.82795,7.035666 -8.95026,16.591779 0.90005,9.799618 2.0889,15.389913 8.84623,16.410458 6.75734,1.020583 15.53088,-6.873178 18.73707,-11.38238 3.31428,-4.661223 8.15702,-22.738922 7.76263,-33.425098 -0.39439,-10.686175 -4.59953,-23.391225 -6.28355,-14.657718 -1.68402,8.733494 -2.35411,16.948266 1.04824,27.813547 1.59876,5.10554 3.46133,22.812519 14.83501,26.067647 8.97669,2.569102 13.14668,-6.128219 14.17426,-7.986595 M 97.048684,71.994101 c 0,0 -1.391655,-3.275358 -2.462827,-1.041671 -1.071172,2.233714 -1.546914,14.750381 2.486282,19.499918 4.572831,5.385044 10.720121,10.192002 18.582431,2.590801 7.16321,-6.92532 3.34115,-18.620435 -2.70209,-22.075733 -6.0432,-3.455258 -11.87507,-3.435869 -15.120887,-1.771503 m -32.193886,8.464661 c -5.472489,-6.206294 -9.142055,4.295557 -9.437238,8.314508 -0.295224,4.018991 2.425239,15.836568 10.663493,16.857748 8.238254,1.02116 19.203582,-14.34875 18.008596,-20.603747 C 83.023348,73.818486 73.699178,62.029605 65.411381,64.079844 62.66645,64.943003 60.165218,71.45428 60.165218,71.45428 M 9.6433544,53.660589 C 3.6444439,40.865224 18.986851,29.740819 31.982001,25.791045 44.977152,21.841272 60.61931,38.53052 56.181322,52.585555 51.743334,66.640587 47.001032,68.559355 42.962677,68.30445 39.107204,68.061089 38.760188,64.869863 38.760188,64.869863 m -8.313467,37.168857 c 0,0 -3.831996,-28.880679 0.978401,-50.873302" />
</svg>
